<svg xmlns="http://www.w3.org/2000/svg" xmlns:xlink="http://www.w3.org/1999/xlink" viewBox="0 0 100 100"><defs/><defs><linearGradient id="a" x1="34.9523037%" x2="116.039609%" y1="0%" y2="115.484477%"><stop offset="0%" stop-color="#1700FF"/><stop offset="100%" stop-color="#B10EF1"/></linearGradient><linearGradient id="d" x1="0%" x2="115.291753%" y1="0%" y2="112.548614%"><stop offset="0%" stop-color="#1700FF"/><stop offset="83.2001616%" stop-color="#9E0CF3"/><stop offset="100%" stop-color="#B10EF1"/></linearGradient><filter id="b" width="162.4%" height="162.5%" x="-35.7%" y="-28.3%" filterUnits="objectBoundingBox"><feOffset dx="-3" dy="2" in="SourceAlpha" result="shadowOffsetOuter1"/><feGaussianBlur in="shadowOffsetOuter1" result="shadowBlurOuter1" stdDeviation="6.5"/><feColorMatrix in="shadowBlurOuter1" values="0 0 0 0 0.0296505968 0 0 0 0 0.0172602666 0 0 0 0 0.100446429 0 0 0 0.423177083 0"/></filter><filter id="e" width="203.1%" height="225.8%" x="-51.5%" y="-62.9%" filterUnits="objectBoundingBox"><feOffset in="SourceAlpha" result="shadowOffsetOuter1"/><feGaussianBlur in="shadowOffsetOuter1" result="shadowBlurOuter1" stdDeviation="6.5"/><feColorMatrix in="shadowBlurOuter1" values="0 0 0 0 1 0 0 0 0 1 0 0 0 0 1 0 0 0 0.588937953 0"/></filter><rect id="c" width="67.2578578" height="67.2008596" x="19.8783454" y="5.46149939" rx="8.99999976"/><path id="f" d="M40.2086259 6.21042694c-.9605844-.96889999-2.1058791-1.45333806-3.435922-1.45333806-1.3300381 0-2.4630185.48443807-3.3989742 1.45333806L16.3049725 23.7622477l-4.2856632-4.397272c-.9359557-.9688953-2.0689361-1.4533381-3.39897423-1.4533381-1.33004238 0-2.47533756.4844428-3.43592197 1.4533381-.93595412.9688952-1.40392414 2.1427301-1.40392414 3.5215429s.46797002 2.5526477 1.40392414 3.5215429l7.6846374 7.9001861c.9605844.9688952 2.1058791 1.4533357 3.435922 1.4533357 1.3300381 0 2.4630185-.4844405 3.3989742-1.4533357l20.5046792-21.0547348c.9359557-.993737 1.4039241-2.1737871 1.4039241-3.54017901 0-1.36638714-.4679684-2.53401163-1.4039241-3.50290685z"/></defs><g fill="none" fill-rule="evenodd"><path fill="url(#a)" d="M20.0219734 15.1240886l54.1609548-.9310311c4.9698284-.0854317 9.0679264 3.8741541 9.1533582 8.8439825a9.00084428 9.00084428 0 01.0013294.1546878v48.8511766c0 4.9102572-3.93578 8.914275-8.8453119 8.9986703l-54.1609548.931031c-4.9698284.0854317-9.0679264-3.8741541-9.1533582-8.8439825a9.00083556 9.00083556 0 01-.0013294-.1546878V24.1227589c0-4.9102573 3.93578-8.9142751 8.8453119-8.9986703z" transform="rotate(156 45.49674793 52.01747856)"/><g transform="rotate(-9 105.7853513 53.4792682)"><use fill="#000" filter="url(#b)" xlink:href="#c"/><use fill="#FBFBFB" xlink:href="#c"/></g><g><path fill="url(#d)" d="M41.1093892 10.5623533c-.9605844-.96889997-2.1058791-1.45333804-3.4359219-1.45333804-1.3300382 0-2.4630185.48443807-3.3989743 1.45333804L17.2057358 28.1141741l-4.2856631-4.3972721c-.9359558-.9688952-2.0689361-1.453338-3.39897427-1.453338-1.33004238 0-2.47533757.4844428-3.43592197 1.453338-.93595412.9688953-1.40392414 2.1427302-1.40392414 3.521543s.46797002 2.5526477 1.40392414 3.5215429l7.68463744 7.9001861c.9605844.9688952 2.1058791 1.4533356 3.4359219 1.4533356 1.3300382 0 2.4630185-.4844404 3.3989743-1.4533356l20.5046791-21.0547348c.9359558-.993737 1.4039242-2.1737871 1.4039242-3.540179 0-1.3663872-.4679684-2.5340117-1.4039242-3.5029069z" opacity=".3" transform="rotate(-16 120.4240348 -70.61928384)"/><path fill="url(#d)" d="M42.0101526 14.2623533c-.9605844-.9689-2.1058791-1.453338-3.435922-1.453338-1.3300381 0-2.4630185.484438-3.3989742 1.453338L18.1064992 31.8141741 13.820836 27.416902c-.9359557-.9688952-2.0689361-1.453338-3.3989742-1.453338-1.33004239 0-2.47533758.4844428-3.43592198 1.453338-.20322805.2103807-.38439184.4304238-.54349152.6601297-.573624.8281902-.86043262 1.7819885-.86043262 2.8614133 0 1.3788128.46797001 2.5526477 1.40392414 3.5215429l7.68463738 7.9001861c.9605844.9688952 2.1058791 1.4533356 3.435922 1.4533356 1.3300381 0 2.4630185-.4844404 3.3989742-1.4533356l20.5046792-21.0547348c.9359557-.993737 1.4039241-2.1737871 1.4039241-3.540179 0-1.3663872-.4679684-2.5340117-1.4039241-3.5029069z" opacity=".2" transform="rotate(-16 121.3247978 -66.91928384)"/><g transform="rotate(-16 119.5232708 -74.97120984)"><use fill="#000" filter="url(#e)" xlink:href="#f"/><use fill="url(#d)" xlink:href="#f"/></g></g></g></svg>